<svg width="109" height="125" viewBox="0 0 109 125" fill="none" xmlns="http://www.w3.org/2000/svg">
<g clip-path="url(#clip0_8312_6994)">
<path fill-rule="evenodd" clip-rule="evenodd" d="M43.5048 67.1759C45.0458 73.215 43.0061 82.341 39.5891 88.1036C38.9169 89.2688 38.1098 90.3501 37.1845 91.3249C37.1685 91.3493 37.16 91.3779 37.16 91.4071C37.16 91.4364 37.1685 91.4649 37.1845 91.4894C39.0903 95.5404 44.2865 98.3208 47.9566 100.653C47.9767 100.665 47.9999 100.672 48.0236 100.672C48.0473 100.672 48.0705 100.665 48.0906 100.653L54.5226 97.7751C54.539 97.7677 54.5568 97.7639 54.5747 97.7639C54.5927 97.7639 54.6105 97.7677 54.6269 97.7751L62.3244 100.428C62.343 100.441 62.3651 100.448 62.3877 100.448C62.4103 100.448 62.4323 100.441 62.451 100.428C65.868 98.0517 70.491 95.4731 72.501 91.7734C72.501 79.7175 68.8234 67.5421 67.0219 65.6138L54.6641 82.2064C54.651 82.2235 54.634 82.2371 54.6146 82.2462C54.5952 82.2553 54.5738 82.2596 54.5524 82.2587C54.5292 82.2594 54.5062 82.2542 54.4854 82.2438C54.4646 82.2334 54.4467 82.218 54.4333 82.199L43.7505 67.0563C43.7315 67.0301 43.7045 67.0108 43.6736 67.0014C43.6427 66.992 43.6096 66.9929 43.5793 67.004C43.5492 67.0198 43.5254 67.0455 43.5119 67.0767C43.4984 67.108 43.4959 67.143 43.5048 67.1759Z" fill="#FF7300"/>
<path fill-rule="evenodd" clip-rule="evenodd" d="M49.855 53.6254C51.3438 55.2846 53.7782 57.8034 54.3216 58.3565C54.4184 58.4462 54.4854 58.4911 54.5524 58.4911C54.6268 58.4911 54.6864 58.4462 54.7906 58.3565C55.3192 57.8034 57.7163 55.2846 59.2573 53.6254C59.2727 53.6021 59.2809 53.5748 59.2809 53.5469C59.2809 53.519 59.2727 53.4917 59.2573 53.4684C58.152 51.0905 57.1996 48.6439 56.4061 46.1437C56.0264 45.0375 55.8924 43.1541 54.5375 43.1541C53.1826 43.1541 53.0486 45.0749 52.6764 46.1437C51.8796 48.6428 50.9273 51.0892 49.8252 53.4684C49.8107 53.492 49.803 53.5192 49.803 53.5469C49.803 53.5746 49.8107 53.6018 49.8252 53.6254H49.855Z" fill="#F26D00"/>
<path fill-rule="evenodd" clip-rule="evenodd" d="M71.1759 45.4112C70.7111 45.4306 70.2511 45.3099 69.8552 45.0646C69.4594 44.8193 69.1457 44.4606 68.9546 44.0347C68.7635 43.6089 68.7038 43.1354 68.7831 42.6751C68.8624 42.2149 69.077 41.789 69.3995 41.4524C69.7219 41.1157 70.1373 40.8836 70.5923 40.786C71.0472 40.6885 71.5208 40.7298 71.9522 40.9049C72.3835 41.0799 72.7527 41.3805 73.0124 41.768C73.2721 42.1555 73.4103 42.6122 73.4092 43.0793C73.4192 43.6853 73.1899 44.2707 72.7715 44.7076C72.353 45.1446 71.7794 45.3975 71.1759 45.4112ZM69.3222 52.2277C70.6538 52.2604 71.9649 51.8938 73.0881 51.1748C74.2112 50.4558 75.0954 49.417 75.6277 48.1911C76.16 46.9652 76.3163 45.6078 76.0766 44.2923C75.8368 42.9768 75.212 41.7629 74.2818 40.8056C73.3517 39.8483 72.1584 39.1912 70.8545 38.918C69.5506 38.6448 68.1951 38.7681 66.9613 39.272C65.7274 39.776 64.6712 40.6377 63.9275 41.7472C63.1838 42.8567 62.7864 44.1636 62.786 45.5009C62.7751 46.3735 62.9356 47.2397 63.2583 48.05C63.5809 48.8603 64.0594 49.5989 64.6663 50.2236C65.2733 50.8482 65.9968 51.3467 66.7957 51.6906C67.5946 52.0344 68.4531 52.217 69.3222 52.2277ZM39.3136 42.8775C39.3297 43.3171 39.4742 43.7423 39.7292 44.1C39.9841 44.4578 40.3383 44.7324 40.7475 44.8895C41.1568 45.0467 41.603 45.0795 42.0307 44.984C42.4584 44.8884 42.8486 44.6686 43.1528 44.352C43.457 44.0354 43.6617 43.6359 43.7415 43.2034C43.8212 42.7708 43.7725 42.3242 43.6013 41.9193C43.4301 41.5143 43.1441 41.1689 42.7788 40.9259C42.4135 40.683 41.9851 40.5533 41.547 40.553C40.9453 40.5687 40.374 40.8212 39.9562 41.2561C39.5383 41.6909 39.3076 42.2733 39.3136 42.8775ZM46.2146 45.5009C46.1824 46.7913 45.7719 48.0436 45.0344 49.1009C44.2968 50.1582 43.2651 50.9737 42.0683 51.4452C40.8715 51.9168 39.5627 52.0235 38.3058 51.7521C37.0489 51.4806 35.8996 50.843 35.0018 49.919C34.104 48.995 33.4976 47.8257 33.2584 46.5575C33.0191 45.2892 33.1578 43.9783 33.657 42.7887C34.1561 41.5991 34.9936 40.5838 36.0647 39.8697C37.1357 39.1557 38.3927 38.7746 39.6784 38.7742C40.5475 38.7849 41.406 38.9674 42.2049 39.3113C43.0038 39.6552 43.7273 40.1536 44.3343 40.7783C44.9412 41.4029 45.4197 42.1415 45.7423 42.9518C46.065 43.7622 46.2254 44.6283 46.2146 45.5009Z" fill="#1A1A1A"/>
<path fill-rule="evenodd" clip-rule="evenodd" d="M41.9713 118.247C40.8844 117.776 41.3087 116.109 41.7182 115.033C40.8598 115.168 39.9859 115.168 39.1275 115.033C38.7692 116.025 38.1139 116.882 37.2515 117.485C35.6807 118.426 32.2637 117.447 28.6681 117.133C26.7102 116.962 22.2956 117.343 20.7323 118.681C20.339 119.005 20.09 119.473 20.0399 119.981C20.0037 120.308 20.0715 120.637 20.2335 120.923C20.4488 121.241 20.742 121.498 21.0849 121.67C21.4278 121.841 21.8088 121.921 22.1914 121.902C22.3403 121.259 23.6207 119.824 27.2759 120.101C23.8292 120.153 22.4743 121.14 22.2733 122.104C22.2305 122.313 22.2387 122.53 22.297 122.735C22.3553 122.941 22.4621 123.129 22.6083 123.285C22.7819 123.479 22.9925 123.637 23.2277 123.749C23.463 123.861 23.7181 123.924 23.9781 123.935C28.0874 124.129 34.9437 120.347 38.6138 120.841C45.3808 121.588 48.3288 121.528 49.6093 121.199C49.8887 121.158 50.1437 121.016 50.3271 120.8C50.5105 120.585 50.6099 120.31 50.6068 120.026C50.6108 119.675 50.5096 119.332 50.3165 119.039C50.1976 118.838 50.0347 118.667 49.8401 118.539C47.6812 117.268 46.1923 120.033 41.9862 118.24L41.9713 118.247Z" fill="#F26D00"/>
<path fill-rule="evenodd" clip-rule="evenodd" d="M50.5994 119.122C50.7449 119.4 50.8191 119.711 50.8153 120.026C51.4651 120.004 52.114 120.09 52.736 120.28C52.1155 119.743 51.3866 119.348 50.5994 119.122ZM22.3775 123.337C22.1297 123.025 22.0099 122.629 22.0425 122.231C21.1051 122.755 20.3317 123.532 19.8092 124.473C20.5543 123.899 21.4241 123.509 22.3477 123.337H22.3775ZM18.3352 121.902C18.8512 121.502 19.4298 121.192 20.0474 120.983C19.9131 120.719 19.8418 120.427 19.839 120.131C19.2276 120.613 18.7209 121.216 18.3501 121.902H18.3352Z" fill="#1A1A1A"/>
<path fill-rule="evenodd" clip-rule="evenodd" d="M67.1112 118.247C68.1981 117.776 67.7738 116.109 67.3643 115.033C68.2227 115.168 69.0966 115.168 69.955 115.033C70.314 116.027 70.9723 116.884 71.8384 117.485C73.4018 118.426 76.8188 117.447 80.4144 117.133C82.3723 116.962 86.7869 117.343 88.3577 118.681C88.7484 119.007 88.9968 119.474 89.05 119.981C89.08 120.308 89.0099 120.637 88.849 120.923C88.6359 121.24 88.3455 121.497 88.0054 121.67C87.6653 121.843 87.2868 121.925 86.906 121.909C86.7571 121.267 85.4767 119.832 81.8214 120.108C85.2682 120.16 86.6231 121.147 86.8315 122.111C86.8715 122.321 86.8613 122.538 86.8017 122.743C86.7422 122.948 86.6351 123.136 86.4891 123.292C86.3155 123.487 86.1049 123.645 85.8697 123.756C85.6344 123.868 85.3793 123.931 85.1193 123.942C81.01 124.137 74.1537 120.355 70.4835 120.848C63.7165 121.596 60.8057 121.536 59.4881 121.207C59.2093 121.164 58.9552 121.022 58.7721 120.806C58.589 120.591 58.489 120.317 58.4905 120.033C58.4912 119.684 58.5892 119.343 58.7734 119.047C58.8997 118.847 59.0672 118.676 59.2647 118.546C61.4162 117.275 62.9051 120.041 67.1112 118.247Z" fill="#F26D00"/>
<path fill-rule="evenodd" clip-rule="evenodd" d="M58.498 119.122C58.3594 119.403 58.2856 119.712 58.2821 120.026C57.6348 120.004 56.9883 120.09 56.3689 120.28C56.9866 119.744 57.713 119.348 58.498 119.122ZM86.7199 123.337C86.9677 123.025 87.0875 122.629 87.0549 122.231C87.994 122.753 88.7679 123.53 89.2882 124.473C88.5431 123.899 87.6733 123.509 86.7497 123.337H86.7199ZM90.7697 121.909C90.2492 121.513 89.6686 121.202 89.05 120.99C89.1878 120.727 89.2594 120.435 89.2585 120.138C89.8694 120.621 90.376 121.224 90.7473 121.909H90.7697Z" fill="#1A1A1A"/>
<path fill-rule="evenodd" clip-rule="evenodd" d="M43.4602 31.7184C51.5002 35.4555 57.6047 35.4555 65.6819 31.7184C67.4983 30.8664 70.1039 30.5001 72.6276 30.3432C72.9626 30.261 73.0817 30.1563 72.9104 29.962C62.5701 17.8314 75.1959 8.0552 73.7889 7.65159C70.2304 6.61268 62.2649 10.0957 60.0762 13.8626C60.052 13.905 60.0147 13.9382 59.97 13.9573C59.9252 13.9764 59.8755 13.9803 59.8284 13.9685C59.7812 13.9567 59.7392 13.9297 59.7087 13.8917C59.6782 13.8537 59.6608 13.8068 59.6593 13.758C59.5625 10.5366 66.7837 3.19699 72.4936 1.20886C72.5412 1.19619 72.5833 1.16807 72.6134 1.12886C72.6434 1.08966 72.6597 1.04158 72.6597 0.992108C72.6597 0.942638 72.6434 0.894557 72.6134 0.855353C72.5833 0.816149 72.5412 0.788023 72.4936 0.775357C53.2496 -2.51328 42.351 4.98332 36.4103 30.0218C36.3731 30.1862 36.4624 30.2834 36.6709 30.3507C38.9952 30.4072 41.2923 30.8674 43.4602 31.711V31.7184Z" fill="#FF7300"/>
<path fill-rule="evenodd" clip-rule="evenodd" d="M46.5199 56.2562C48.7085 53.6701 50.3165 48.9464 51.4183 45.7101C52.1628 43.6323 52.3042 41.7563 54.545 41.7787C56.7783 41.7787 56.9719 43.6323 57.6716 45.7101C58.7809 48.9464 60.3814 53.6701 62.5775 56.2562C63.6572 57.5626 65.0548 58.5667 66.6348 59.1711C71.7491 61.1443 79.8859 59.9185 83.154 54.4698C84.4568 52.2949 84.8886 49.3575 85.3055 46.5547C85.7075 43.8864 86.0499 41.3228 87.1814 39.8279C87.3629 39.5565 87.5926 39.3209 87.8589 39.1328C88.2832 38.8339 88.447 38.7143 88.4396 37.3017V34.312C88.4423 34.2135 88.4297 34.1151 88.4023 34.0205C88.1567 33.1236 86.7124 32.5257 84.6206 32.1071C82.1961 31.7185 79.7427 31.541 77.2878 31.5765C73.1561 31.5765 68.8234 32.0698 66.2551 32.9517C57.6047 36.345 51.5225 36.345 42.8646 32.9592C40.2963 32.0772 35.9636 31.6064 31.8245 31.5839C29.3721 31.5484 26.9211 31.7259 24.4992 32.1146C22.4073 32.5033 20.9556 33.1311 20.71 34.028C20.6986 34.1248 20.6986 34.2226 20.71 34.3195V37.3091C20.71 38.7218 20.8737 38.804 21.2906 39.1403C21.5615 39.3255 21.794 39.5615 21.9755 39.8354C23.0698 41.3302 23.4644 43.9163 23.8441 46.5622C24.261 49.365 24.7002 52.3023 26.003 54.4773C29.2636 59.9409 37.4004 61.1518 42.5222 59.1786C44.101 58.572 45.4981 57.5683 46.5794 56.2636L46.5199 56.2562ZM43.6686 55.7629C39.738 59.059 31.8245 58.5059 28.4001 54.4399C24.8788 50.2469 22.8614 36.9952 29.2487 35.0071C34.3929 33.3852 44.8076 34.0504 48.4331 39.1254C51.329 43.1614 46.907 53.0871 43.6686 55.7853V55.7629ZM65.4288 55.7629C69.3818 59.059 77.2654 58.5059 80.6899 54.4399C84.2186 50.2544 86.2286 36.9952 79.8487 35.0071C74.7269 33.3628 64.3047 34.028 60.6643 39.1029C57.761 43.139 62.1532 53.0572 65.4288 55.7629Z" fill="#1A1A1A"/>
<path fill-rule="evenodd" clip-rule="evenodd" d="M62.317 58.5508C62.3713 58.5125 62.4369 58.494 62.5031 58.4984C62.585 58.4984 62.6594 58.4984 62.6594 58.5657C62.3914 61.4881 58.3268 63.7976 54.8056 63.7976C51.2843 63.7976 47.2122 61.4657 46.9517 58.5657C46.9517 58.5657 47.0261 58.5059 47.108 58.4984C47.174 58.4952 47.2393 58.5135 47.2941 58.5508C52.5052 62.7587 57.1059 62.7587 62.317 58.5508Z" fill="#F26D00"/>
<path fill-rule="evenodd" clip-rule="evenodd" d="M57.7535 77.2363C57.1208 76.2462 56.7329 75.1187 56.622 73.9477C56.622 69.7023 59.9273 72.2286 59.771 72.0642L54.6492 66.8323C54.6152 66.8219 54.5789 66.8219 54.545 66.8323C54.5083 66.8347 54.4738 66.8507 54.4482 66.8771L49.4902 72.3034C49.3413 72.4678 52.5945 69.8369 52.6987 74.0897C52.6443 75.2621 52.2821 76.3992 51.6491 77.3858C51.636 77.4085 51.6291 77.4343 51.6291 77.4605C51.6291 77.4868 51.636 77.5126 51.6491 77.5353L54.4482 81.5414C54.4605 81.5599 54.4771 81.575 54.4965 81.5854C54.516 81.5958 54.5378 81.6013 54.5599 81.6012C54.5818 81.6006 54.6033 81.5949 54.6227 81.5846C54.6421 81.5742 54.6588 81.5594 54.6715 81.5414L57.7461 77.4082C57.7608 77.3861 57.7687 77.3601 57.7687 77.3335C57.7687 77.3069 57.7608 77.2809 57.7461 77.2587L57.7535 77.2363Z" fill="#1A1A1A"/>
<path fill-rule="evenodd" clip-rule="evenodd" d="M54.5301 84.3367C54.6873 84.3353 54.8414 84.3806 54.973 84.4669C55.1047 84.5532 55.2079 84.6767 55.2697 84.8218C55.3316 84.967 55.3493 85.1272 55.3205 85.2824C55.2918 85.4376 55.218 85.5808 55.1084 85.694C54.9988 85.8071 54.8583 85.8852 54.7046 85.9183C54.5509 85.9515 54.3908 85.9382 54.2446 85.8802C54.0984 85.8222 53.9725 85.722 53.8829 85.5923C53.7933 85.4626 53.7439 85.3092 53.741 85.1514C53.739 85.0457 53.7579 84.9408 53.7966 84.8425C53.8353 84.7442 53.8929 84.6546 53.9663 84.5789C54.0397 84.5031 54.1273 84.4427 54.2241 84.4011C54.3208 84.3596 54.4248 84.3377 54.5301 84.3367Z" fill="#FCFCFC"/>
<path fill-rule="evenodd" clip-rule="evenodd" d="M54.5301 89.6881C54.729 89.7073 54.9137 89.8003 55.048 89.9489C55.1824 90.0974 55.2568 90.2909 55.2568 90.4915C55.2568 90.6922 55.1824 90.8857 55.048 91.0342C54.9137 91.1827 54.729 91.2757 54.5301 91.295C54.4185 91.3058 54.3059 91.2931 54.1995 91.2576C54.0931 91.2222 53.9953 91.1648 53.9123 91.0891C53.8293 91.0135 53.763 90.9212 53.7176 90.8183C53.6722 90.7154 53.6488 90.6041 53.6488 90.4915C53.6488 90.379 53.6722 90.2677 53.7176 90.1648C53.763 90.0619 53.8293 89.9696 53.9123 89.894C53.9953 89.8183 54.0931 89.7609 54.1995 89.7254C54.3059 89.69 54.4185 89.6772 54.5301 89.6881Z" fill="#FCFCFC"/>
<path fill-rule="evenodd" clip-rule="evenodd" d="M54.5301 95.0697C54.729 95.0889 54.9137 95.1819 55.048 95.3305C55.1824 95.479 55.2568 95.6725 55.2568 95.8731C55.2568 96.0738 55.1824 96.2672 55.048 96.4158C54.9137 96.5643 54.729 96.6573 54.5301 96.6766C54.4185 96.6874 54.3059 96.6747 54.1995 96.6392C54.0931 96.6038 53.9953 96.5464 53.9123 96.4707C53.8293 96.395 53.763 96.3028 53.7176 96.1999C53.6722 96.097 53.6488 95.9857 53.6488 95.8731C53.6488 95.7606 53.6722 95.6493 53.7176 95.5464C53.763 95.4434 53.8293 95.3512 53.9123 95.2755C53.9953 95.1999 54.0931 95.1425 54.1995 95.107C54.3059 95.0716 54.4185 95.0588 54.5301 95.0697Z" fill="#FCFCFC"/>
<path fill-rule="evenodd" clip-rule="evenodd" d="M39.2392 87.9093C42.3286 82.6773 44.5396 74.0596 43.2666 67.9233C42.1053 63.2146 40.1176 61.944 36.0902 61.361C28.951 60.6136 17.0771 58.2742 3.20061 49.5294C3.18052 49.5168 3.1573 49.5101 3.13361 49.5101C3.10992 49.5101 3.08671 49.5168 3.06661 49.5294H2.99217C2.97009 49.5394 2.95096 49.555 2.93662 49.5747C2.92228 49.5943 2.91321 49.6173 2.91028 49.6415C2.32961 55.7628 3.52817 63.3416 9.61028 70.6514C10.4515 71.6455 0.267501 68.9846 0.200501 69.0519C0.181997 69.0699 0.168749 69.0927 0.162189 69.1177C0.155628 69.1427 0.156006 69.1691 0.163279 69.1939C3.97484 81.1526 10.861 83.5668 15.2681 85.966C16.5336 86.6611 7.21317 86.7134 7.92784 87.3412C13.3474 92.2816 18.7297 94.5613 24.5587 94.8154C33.4251 95.1592 36.3284 91.31 35.9338 92.6404C34.1621 98.6945 33.4102 112.073 38.6883 114.689C39.7393 114.975 40.8447 114.993 41.9043 114.742C46.5645 111.999 48.2544 104.053 49.2594 104.494C50.8947 105.318 52.687 105.779 54.5152 105.847C56.3655 105.791 58.1817 105.332 59.838 104.502C60.8355 104.061 62.518 111.931 67.1261 114.712C67.1365 114.717 67.1479 114.72 67.1596 114.72C67.1712 114.72 67.1827 114.717 67.1931 114.712L70.4091 114.667C70.431 114.673 70.4542 114.673 70.4761 114.667C75.6872 111.759 74.9428 98.8589 73.1635 92.6553C72.7988 91.3997 75.7467 95.1667 84.5386 94.8303C90.3676 94.5986 95.75 92.3265 101.17 87.3562C101.854 86.7358 93.8368 86.9002 93.7251 86.1379C93.7207 86.1093 93.7255 86.0801 93.7389 86.0545C93.7523 86.0289 93.7736 86.0084 93.7995 85.9959C98.2066 83.5892 105.115 81.1601 108.927 69.2014C109.135 68.5437 103.142 70.8158 99.5615 70.9279C98.0727 70.9728 107.803 64.6646 106.195 49.4995C106.192 49.4742 106.183 49.45 106.169 49.429C106.155 49.4081 106.135 49.3912 106.113 49.3799H106.053C106.03 49.3668 106.005 49.3599 105.979 49.3599C105.953 49.3599 105.927 49.3668 105.904 49.3799C97.2017 55.9497 76.9825 62.213 66.1657 62.086C66.1415 62.0785 66.1156 62.0785 66.0913 62.086C65.9201 62.1906 65.9201 62.4148 66.0541 62.7661C68.2851 66.4872 69.8875 70.5532 70.7962 74.7996C72.1357 80.3562 72.8351 86.049 72.8806 91.7659V91.8332C72.8849 91.8554 72.8849 91.8782 72.8806 91.9005V91.9603C70.8111 95.7721 66.1806 98.3283 62.7041 100.757C62.4807 100.907 62.4659 100.907 62.2202 100.817L54.6269 98.2161C54.593 98.2053 54.5565 98.2053 54.5226 98.2161L48.2321 101.034C47.9715 101.146 47.9566 101.146 47.7184 100.997C43.9962 98.6123 38.7851 95.8319 36.7974 91.6613C36.656 91.3474 36.6634 91.2951 36.9016 91.0409C37.8061 90.093 38.5935 89.039 39.2466 87.9018L39.2392 87.9093Z" fill="#333333"/>
</g>
<defs>
<clipPath id="clip0_8312_6994">
<rect width="109" height="125" fill="white"/>
</clipPath>
</defs>
</svg>
