<svg width="111" height="80" viewBox="0 0 111 80" fill="none" xmlns="http://www.w3.org/2000/svg">
<path d="M11.475 64.116C11.785 64.276 11.94 64.531 11.94 64.881C11.94 65.091 11.865 65.296 11.715 65.496C11.555 65.706 11.35 65.811 11.1 65.811C10.93 65.811 10.76 65.766 10.59 65.676C10.1 65.446 9.57 65.331 9 65.331C8.3 65.331 7.69 65.481 7.17 65.781C6.65 66.071 6.25 66.486 5.97 67.026C5.69 67.556 5.55 68.166 5.55 68.856C5.55 70.036 5.865 70.931 6.495 71.541C7.135 72.151 7.97 72.456 9 72.456C9.61 72.456 10.14 72.341 10.59 72.111C10.77 72.031 10.93 71.991 11.07 71.991C11.33 71.991 11.55 72.101 11.73 72.321C11.88 72.511 11.955 72.716 11.955 72.936C11.955 73.096 11.915 73.241 11.835 73.371C11.755 73.501 11.64 73.601 11.49 73.671C10.71 74.061 9.88 74.256 9 74.256C8.02 74.256 7.12 74.051 6.3 73.641C5.48 73.221 4.825 72.606 4.335 71.796C3.845 70.986 3.6 70.006 3.6 68.856C3.6 67.836 3.83 66.921 4.29 66.111C4.76 65.301 5.405 64.671 6.225 64.221C7.045 63.761 7.97 63.531 9 63.531C9.89 63.531 10.715 63.726 11.475 64.116ZM15.3293 73.191C15.3293 73.451 15.2393 73.671 15.0593 73.851C14.8893 74.021 14.6743 74.106 14.4143 74.106C14.1643 74.106 13.9543 74.021 13.7843 73.851C13.6143 73.671 13.5293 73.451 13.5293 73.191V63.921C13.5293 63.661 13.6143 63.446 13.7843 63.276C13.9643 63.096 14.1843 63.006 14.4443 63.006C14.6943 63.006 14.9043 63.096 15.0743 63.276C15.2443 63.446 15.3293 63.661 15.3293 63.921V73.191ZM19.1173 73.191C19.1173 73.451 19.0323 73.671 18.8623 73.851C18.6923 74.021 18.4773 74.106 18.2173 74.106C17.9573 74.106 17.7423 74.021 17.5723 73.851C17.4023 73.671 17.3173 73.451 17.3173 73.191V66.996C17.3173 66.736 17.4023 66.521 17.5723 66.351C17.7423 66.171 17.9573 66.081 18.2173 66.081C18.4773 66.081 18.6923 66.171 18.8623 66.351C19.0323 66.521 19.1173 66.736 19.1173 66.996V73.191ZM18.2023 65.106C17.8623 65.106 17.6223 65.051 17.4823 64.941C17.3423 64.831 17.2723 64.636 17.2723 64.356V64.071C17.2723 63.791 17.3473 63.596 17.4973 63.486C17.6473 63.376 17.8873 63.321 18.2173 63.321C18.5673 63.321 18.8123 63.376 18.9523 63.486C19.0923 63.596 19.1623 63.791 19.1623 64.071V64.356C19.1623 64.646 19.0873 64.846 18.9373 64.956C18.7973 65.056 18.5523 65.106 18.2023 65.106ZM24.4622 65.931C25.3122 65.931 25.9972 66.066 26.5172 66.336C27.0372 66.596 27.2972 66.946 27.2972 67.386C27.2972 67.606 27.2322 67.801 27.1022 67.971C26.9722 68.131 26.8022 68.211 26.5922 68.211C26.4322 68.211 26.3022 68.191 26.2022 68.151C26.1022 68.101 26.0022 68.041 25.9022 67.971C25.8122 67.891 25.7222 67.826 25.6322 67.776C25.5322 67.726 25.3822 67.681 25.1822 67.641C24.9922 67.601 24.8372 67.581 24.7172 67.581C23.9672 67.581 23.3772 67.816 22.9472 68.286C22.5272 68.746 22.3172 69.351 22.3172 70.101C22.3172 70.821 22.5322 71.421 22.9622 71.901C23.3922 72.371 23.9422 72.606 24.6122 72.606C25.1022 72.606 25.4672 72.546 25.7072 72.426C25.7672 72.396 25.8472 72.346 25.9472 72.276C26.0572 72.196 26.1572 72.136 26.2472 72.096C26.3372 72.056 26.4472 72.036 26.5772 72.036C26.8272 72.036 27.0222 72.116 27.1622 72.276C27.3122 72.436 27.3872 72.641 27.3872 72.891C27.3872 73.131 27.2472 73.356 26.9672 73.566C26.6872 73.776 26.3172 73.946 25.8572 74.076C25.3972 74.196 24.9072 74.256 24.3872 74.256C23.6172 74.256 22.9372 74.076 22.3472 73.716C21.7672 73.356 21.3172 72.861 20.9972 72.231C20.6772 71.591 20.5172 70.881 20.5172 70.101C20.5172 69.291 20.6822 68.571 21.0122 67.941C21.3522 67.311 21.8222 66.821 22.4222 66.471C23.0222 66.111 23.7022 65.931 24.4622 65.931ZM35.3619 72.531C35.5519 72.731 35.6469 72.956 35.6469 73.206C35.6469 73.456 35.5469 73.666 35.3469 73.836C35.1569 74.006 34.9519 74.091 34.7319 74.091C34.4719 74.091 34.2519 73.991 34.0719 73.791L31.3719 70.941L30.6369 71.616V73.191C30.6369 73.451 30.5519 73.671 30.3819 73.851C30.2119 74.021 29.9969 74.106 29.7369 74.106C29.4769 74.106 29.2619 74.021 29.0919 73.851C28.9219 73.671 28.8369 73.451 28.8369 73.191V63.921C28.8369 63.661 28.9219 63.446 29.0919 63.276C29.2619 63.096 29.4769 63.006 29.7369 63.006C29.9969 63.006 30.2119 63.096 30.3819 63.276C30.5519 63.446 30.6369 63.661 30.6369 63.921V69.471L33.8469 66.366C34.0369 66.176 34.2569 66.081 34.5069 66.081C34.7269 66.081 34.9219 66.176 35.0919 66.366C35.2719 66.546 35.3619 66.731 35.3619 66.921C35.3619 67.161 35.2419 67.386 35.0019 67.596L32.7369 69.681L35.3619 72.531ZM39.252 73.191C39.252 73.451 39.157 73.671 38.967 73.851C38.777 74.021 38.557 74.106 38.307 74.106C38.037 74.106 37.812 74.021 37.632 73.851C37.462 73.671 37.377 73.451 37.377 73.191V64.521C37.377 64.261 37.467 64.046 37.647 63.876C37.827 63.696 38.057 63.606 38.337 63.606C38.587 63.606 38.802 63.696 38.982 63.876C39.162 64.046 39.252 64.261 39.252 64.521V73.191ZM49.1728 63.576C49.4228 63.576 49.6378 63.661 49.8178 63.831C50.0078 64.001 50.1028 64.206 50.1028 64.446C50.1028 64.576 50.0728 64.711 50.0128 64.851L46.3078 73.521C46.2178 73.711 46.0928 73.856 45.9328 73.956C45.7728 74.056 45.6028 74.106 45.4228 74.106C45.2528 74.096 45.0928 74.046 44.9428 73.956C44.8028 73.856 44.6928 73.716 44.6128 73.536L40.9078 64.836C40.8578 64.736 40.8328 64.611 40.8328 64.461C40.8328 64.191 40.9328 63.976 41.1328 63.816C41.3328 63.646 41.5378 63.561 41.7478 63.561C41.9178 63.561 42.0778 63.611 42.2278 63.711C42.3778 63.811 42.4928 63.956 42.5728 64.146L45.5878 71.241L48.3478 64.146C48.4278 63.966 48.5428 63.826 48.6928 63.726C48.8428 63.626 49.0028 63.576 49.1728 63.576ZM61.1727 68.856C61.1727 69.846 60.9527 70.756 60.5127 71.586C60.0727 72.406 59.4627 73.056 58.6827 73.536C57.9127 74.016 57.0427 74.256 56.0727 74.256C55.1027 74.256 54.2277 74.016 53.4477 73.536C52.6777 73.056 52.0727 72.406 51.6327 71.586C51.2027 70.756 50.9877 69.846 50.9877 68.856C50.9877 67.866 51.2027 66.961 51.6327 66.141C52.0727 65.311 52.6777 64.656 53.4477 64.176C54.2277 63.696 55.1027 63.456 56.0727 63.456C57.0427 63.456 57.9127 63.696 58.6827 64.176C59.4627 64.656 60.0727 65.311 60.5127 66.141C60.9527 66.961 61.1727 67.866 61.1727 68.856ZM59.2227 68.856C59.2227 68.186 59.0877 67.581 58.8177 67.041C58.5477 66.491 58.1727 66.056 57.6927 65.736C57.2127 65.416 56.6727 65.256 56.0727 65.256C55.4627 65.256 54.9177 65.416 54.4377 65.736C53.9677 66.046 53.5977 66.476 53.3277 67.026C53.0677 67.576 52.9377 68.186 52.9377 68.856C52.9377 69.526 53.0677 70.136 53.3277 70.686C53.5977 71.236 53.9677 71.671 54.4377 71.991C54.9177 72.301 55.4627 72.456 56.0727 72.456C56.6727 72.456 57.2127 72.296 57.6927 71.976C58.1727 71.656 58.5477 71.226 58.8177 70.686C59.0877 70.136 59.2227 69.526 59.2227 68.856ZM71.4336 63.606C71.9436 63.606 72.4286 63.761 72.8886 64.071C73.3486 64.371 73.7186 64.781 73.9986 65.301C74.2786 65.811 74.4186 66.371 74.4186 66.981C74.4186 67.581 74.2786 68.141 73.9986 68.661C73.7186 69.181 73.3486 69.596 72.8886 69.906C72.4286 70.206 71.9436 70.356 71.4336 70.356H68.8236V73.191C68.8236 73.461 68.7436 73.681 68.5836 73.851C68.4236 74.021 68.2136 74.106 67.9536 74.106C67.7036 74.106 67.4986 74.021 67.3386 73.851C67.1786 73.671 67.0986 73.451 67.0986 73.191V64.521C67.0986 64.261 67.1836 64.046 67.3536 63.876C67.5336 63.696 67.7536 63.606 68.0136 63.606H71.4336ZM71.4336 68.646C71.6236 68.646 71.8086 68.566 71.9886 68.406C72.1786 68.246 72.3286 68.041 72.4386 67.791C72.5586 67.531 72.6186 67.261 72.6186 66.981C72.6186 66.701 72.5586 66.436 72.4386 66.186C72.3286 65.926 72.1786 65.721 71.9886 65.571C71.8086 65.411 71.6236 65.331 71.4336 65.331H68.8236V68.646H71.4336ZM80.1567 65.931C80.4567 65.931 80.7067 66.016 80.9067 66.186C81.1167 66.356 81.2217 66.556 81.2217 66.786C81.2217 67.096 81.1417 67.331 80.9817 67.491C80.8217 67.641 80.6317 67.716 80.4117 67.716C80.2617 67.716 80.0917 67.681 79.9017 67.611C79.8717 67.601 79.8017 67.581 79.6917 67.551C79.5917 67.521 79.4817 67.506 79.3617 67.506C79.1017 67.506 78.8517 67.586 78.6117 67.746C78.3717 67.906 78.1717 68.151 78.0117 68.481C77.8617 68.801 77.7867 69.186 77.7867 69.636V73.191C77.7867 73.451 77.7017 73.671 77.5317 73.851C77.3617 74.021 77.1467 74.106 76.8867 74.106C76.6267 74.106 76.4117 74.021 76.2417 73.851C76.0717 73.671 75.9867 73.451 75.9867 73.191V66.996C75.9867 66.736 76.0717 66.521 76.2417 66.351C76.4117 66.171 76.6267 66.081 76.8867 66.081C77.1467 66.081 77.3617 66.171 77.5317 66.351C77.7017 66.521 77.7867 66.736 77.7867 66.996V67.191C78.0167 66.781 78.3467 66.471 78.7767 66.261C79.2067 66.041 79.6667 65.931 80.1567 65.931ZM84.1856 73.191C84.1856 73.451 84.1006 73.671 83.9306 73.851C83.7606 74.021 83.5456 74.106 83.2856 74.106C83.0256 74.106 82.8106 74.021 82.6406 73.851C82.4706 73.671 82.3856 73.451 82.3856 73.191V66.996C82.3856 66.736 82.4706 66.521 82.6406 66.351C82.8106 66.171 83.0256 66.081 83.2856 66.081C83.5456 66.081 83.7606 66.171 83.9306 66.351C84.1006 66.521 84.1856 66.736 84.1856 66.996V73.191ZM83.2706 65.106C82.9306 65.106 82.6906 65.051 82.5506 64.941C82.4106 64.831 82.3406 64.636 82.3406 64.356V64.071C82.3406 63.791 82.4156 63.596 82.5656 63.486C82.7156 63.376 82.9556 63.321 83.2856 63.321C83.6356 63.321 83.8806 63.376 84.0206 63.486C84.1606 63.596 84.2306 63.791 84.2306 64.071V64.356C84.2306 64.646 84.1556 64.846 84.0056 64.956C83.8656 65.056 83.6206 65.106 83.2706 65.106ZM95.2905 65.931C96.2805 65.931 96.9655 66.236 97.3455 66.846C97.7255 67.446 97.9155 68.281 97.9155 69.351V73.191C97.9155 73.451 97.8305 73.671 97.6605 73.851C97.4905 74.021 97.2755 74.106 97.0155 74.106C96.7555 74.106 96.5405 74.021 96.3705 73.851C96.2005 73.671 96.1155 73.451 96.1155 73.191V69.351C96.1155 68.801 96.0055 68.371 95.7855 68.061C95.5755 67.741 95.2005 67.581 94.6605 67.581C94.1005 67.581 93.6605 67.751 93.3405 68.091C93.0305 68.421 92.8755 68.841 92.8755 69.351V73.191C92.8755 73.451 92.7905 73.671 92.6205 73.851C92.4505 74.021 92.2355 74.106 91.9755 74.106C91.7155 74.106 91.5005 74.021 91.3305 73.851C91.1605 73.671 91.0755 73.451 91.0755 73.191V69.351C91.0755 68.801 90.9655 68.371 90.7455 68.061C90.5355 67.741 90.1605 67.581 89.6205 67.581C89.0605 67.581 88.6205 67.751 88.3005 68.091C87.9905 68.421 87.8355 68.841 87.8355 69.351V73.191C87.8355 73.451 87.7505 73.671 87.5805 73.851C87.4105 74.021 87.1955 74.106 86.9355 74.106C86.6755 74.106 86.4605 74.021 86.2905 73.851C86.1205 73.671 86.0355 73.451 86.0355 73.191V66.996C86.0355 66.736 86.1205 66.521 86.2905 66.351C86.4605 66.171 86.6755 66.081 86.9355 66.081C87.1955 66.081 87.4105 66.171 87.5805 66.351C87.7505 66.521 87.8355 66.736 87.8355 66.996V67.236C88.1055 66.876 88.4455 66.571 88.8555 66.321C89.2755 66.061 89.7405 65.931 90.2505 65.931C91.5105 65.931 92.3155 66.481 92.6655 67.581C92.8955 67.161 93.2405 66.781 93.7005 66.441C94.1705 66.101 94.7005 65.931 95.2905 65.931ZM107.064 69.906C107.054 70.146 106.959 70.341 106.779 70.491C106.599 70.641 106.389 70.716 106.149 70.716H101.199C101.319 71.306 101.594 71.771 102.024 72.111C102.454 72.441 102.939 72.606 103.479 72.606C103.889 72.606 104.209 72.571 104.439 72.501C104.669 72.421 104.849 72.341 104.979 72.261C105.119 72.171 105.214 72.111 105.264 72.081C105.444 71.991 105.614 71.946 105.774 71.946C105.984 71.946 106.164 72.021 106.314 72.171C106.464 72.321 106.539 72.496 106.539 72.696C106.539 72.966 106.399 73.211 106.119 73.431C105.839 73.661 105.464 73.856 104.994 74.016C104.524 74.176 104.049 74.256 103.569 74.256C102.729 74.256 101.994 74.081 101.364 73.731C100.744 73.381 100.264 72.901 99.9237 72.291C99.5837 71.671 99.4137 70.976 99.4137 70.206C99.4137 69.346 99.5937 68.591 99.9537 67.941C100.314 67.291 100.789 66.796 101.379 66.456C101.969 66.106 102.599 65.931 103.269 65.931C103.929 65.931 104.549 66.111 105.129 66.471C105.719 66.831 106.189 67.316 106.539 67.926C106.889 68.536 107.064 69.196 107.064 69.906ZM103.269 67.581C102.109 67.581 101.424 68.126 101.214 69.216H105.144V69.111C105.104 68.691 104.899 68.331 104.529 68.031C104.159 67.731 103.739 67.581 103.269 67.581Z" fill="#1572E8"/>
<path d="M45.4338 3L31 28L45.4338 53H74.3014L79.1121 44.6661H50.2445L40.6231 28L50.2445 11.3339H79.1121L74.3014 3H45.4338Z" fill="#1572E8"/>
<path d="M55.0566 19.6679L50.2441 28.0001L55.0566 36.334H64.6779L69.4886 28.0001L64.6779 19.6679H55.0566Z" fill="#1572E8"/>
</svg>
