<svg width="152" height="35" viewBox="0 0 152 35" fill="none" xmlns="http://www.w3.org/2000/svg">
<path d="M11.341 3.00004L3 17.447L11.341 31.894H28.023L30.803 27.078H14.121L8.561 17.447L14.121 7.81604H30.803L28.023 3.00004H11.341Z" fill="white"/>
<path d="M16.9021 12.6321L14.1211 17.4471L16.9021 22.2631H22.4621L25.2421 17.4471L22.4621 12.6321H16.9021Z" fill="white"/>
<path d="M47.04 13.344C47.3707 13.5147 47.536 13.7867 47.536 14.16C47.536 14.384 47.456 14.6027 47.296 14.816C47.1253 15.04 46.9067 15.152 46.64 15.152C46.4587 15.152 46.2773 15.104 46.096 15.008C45.5733 14.7627 45.008 14.64 44.4 14.64C43.6533 14.64 43.0027 14.8 42.448 15.12C41.8933 15.4293 41.4667 15.872 41.168 16.448C40.8693 17.0133 40.72 17.664 40.72 18.4C40.72 19.6587 41.056 20.6133 41.728 21.264C42.4107 21.9147 43.3013 22.24 44.4 22.24C45.0507 22.24 45.616 22.1173 46.096 21.872C46.288 21.7867 46.4587 21.744 46.608 21.744C46.8853 21.744 47.12 21.8613 47.312 22.096C47.472 22.2987 47.552 22.5173 47.552 22.752C47.552 22.9227 47.5093 23.0773 47.424 23.216C47.3387 23.3547 47.216 23.4613 47.056 23.536C46.224 23.952 45.3387 24.16 44.4 24.16C43.3547 24.16 42.3947 23.9413 41.52 23.504C40.6453 23.056 39.9467 22.4 39.424 21.536C38.9013 20.672 38.64 19.6267 38.64 18.4C38.64 17.312 38.8853 16.336 39.376 15.472C39.8773 14.608 40.5653 13.936 41.44 13.456C42.3147 12.9653 43.3013 12.72 44.4 12.72C45.3493 12.72 46.2293 12.928 47.04 13.344ZM51.1513 23.024C51.1513 23.3013 51.0553 23.536 50.8633 23.728C50.6819 23.9093 50.4526 24 50.1753 24C49.9086 24 49.6846 23.9093 49.5033 23.728C49.3219 23.536 49.2313 23.3013 49.2313 23.024V13.136C49.2313 12.8587 49.3219 12.6293 49.5033 12.448C49.6953 12.256 49.9299 12.16 50.2073 12.16C50.4739 12.16 50.6979 12.256 50.8793 12.448C51.0606 12.6293 51.1513 12.8587 51.1513 13.136V23.024ZM55.1918 23.024C55.1918 23.3013 55.1011 23.536 54.9198 23.728C54.7384 23.9093 54.5091 24 54.2318 24C53.9544 24 53.7251 23.9093 53.5438 23.728C53.3624 23.536 53.2718 23.3013 53.2718 23.024V16.416C53.2718 16.1387 53.3624 15.9093 53.5438 15.728C53.7251 15.536 53.9544 15.44 54.2318 15.44C54.5091 15.44 54.7384 15.536 54.9198 15.728C55.1011 15.9093 55.1918 16.1387 55.1918 16.416V23.024ZM54.2158 14.4C53.8531 14.4 53.5971 14.3413 53.4478 14.224C53.2984 14.1067 53.2238 13.8987 53.2238 13.6V13.296C53.2238 12.9973 53.3038 12.7893 53.4638 12.672C53.6238 12.5547 53.8798 12.496 54.2318 12.496C54.6051 12.496 54.8664 12.5547 55.0158 12.672C55.1651 12.7893 55.2398 12.9973 55.2398 13.296V13.6C55.2398 13.9093 55.1598 14.1227 54.9998 14.24C54.8504 14.3467 54.5891 14.4 54.2158 14.4ZM60.893 15.28C61.7997 15.28 62.5303 15.424 63.085 15.712C63.6397 15.9893 63.917 16.3627 63.917 16.832C63.917 17.0667 63.8477 17.2747 63.709 17.456C63.5703 17.6267 63.389 17.712 63.165 17.712C62.9943 17.712 62.8557 17.6907 62.749 17.648C62.6423 17.5947 62.5357 17.5307 62.429 17.456C62.333 17.3707 62.237 17.3013 62.141 17.248C62.0343 17.1947 61.8743 17.1467 61.661 17.104C61.4583 17.0613 61.293 17.04 61.165 17.04C60.365 17.04 59.7357 17.2907 59.277 17.792C58.829 18.2827 58.605 18.928 58.605 19.728C58.605 20.496 58.8343 21.136 59.293 21.648C59.7517 22.1493 60.3383 22.4 61.053 22.4C61.5757 22.4 61.965 22.336 62.221 22.208C62.285 22.176 62.3703 22.1227 62.477 22.048C62.5943 21.9627 62.701 21.8987 62.797 21.856C62.893 21.8133 63.0103 21.792 63.149 21.792C63.4157 21.792 63.6237 21.8773 63.773 22.048C63.933 22.2187 64.013 22.4373 64.013 22.704C64.013 22.96 63.8637 23.2 63.565 23.424C63.2663 23.648 62.8717 23.8293 62.381 23.968C61.8903 24.096 61.3677 24.16 60.813 24.16C59.9917 24.16 59.2663 23.968 58.637 23.584C58.0183 23.2 57.5383 22.672 57.197 22C56.8557 21.3173 56.685 20.56 56.685 19.728C56.685 18.864 56.861 18.096 57.213 17.424C57.5757 16.752 58.077 16.2293 58.717 15.856C59.357 15.472 60.0823 15.28 60.893 15.28ZM72.5194 22.32C72.722 22.5333 72.8234 22.7733 72.8234 23.04C72.8234 23.3067 72.7167 23.5307 72.5034 23.712C72.3007 23.8933 72.082 23.984 71.8474 23.984C71.57 23.984 71.3354 23.8773 71.1434 23.664L68.2634 20.624L67.4794 21.344V23.024C67.4794 23.3013 67.3887 23.536 67.2074 23.728C67.026 23.9093 66.7967 24 66.5194 24C66.242 24 66.0127 23.9093 65.8314 23.728C65.65 23.536 65.5594 23.3013 65.5594 23.024V13.136C65.5594 12.8587 65.65 12.6293 65.8314 12.448C66.0127 12.256 66.242 12.16 66.5194 12.16C66.7967 12.16 67.026 12.256 67.2074 12.448C67.3887 12.6293 67.4794 12.8587 67.4794 13.136V19.056L70.9034 15.744C71.106 15.5413 71.3407 15.44 71.6074 15.44C71.842 15.44 72.05 15.5413 72.2314 15.744C72.4234 15.936 72.5194 16.1333 72.5194 16.336C72.5194 16.592 72.3914 16.832 72.1354 17.056L69.7194 19.28L72.5194 22.32ZM76.6688 23.024C76.6688 23.3013 76.5674 23.536 76.3648 23.728C76.1621 23.9093 75.9274 24 75.6608 24C75.3728 24 75.1328 23.9093 74.9408 23.728C74.7594 23.536 74.6688 23.3013 74.6688 23.024V13.776C74.6688 13.4987 74.7648 13.2693 74.9568 13.088C75.1488 12.896 75.3941 12.8 75.6928 12.8C75.9594 12.8 76.1888 12.896 76.3808 13.088C76.5728 13.2693 76.6688 13.4987 76.6688 13.776V23.024ZM87.251 12.768C87.5177 12.768 87.747 12.8587 87.939 13.04C88.1417 13.2213 88.243 13.44 88.243 13.696C88.243 13.8347 88.211 13.9787 88.147 14.128L84.195 23.376C84.099 23.5787 83.9657 23.7333 83.795 23.84C83.6243 23.9467 83.443 24 83.251 24C83.0697 23.9893 82.899 23.936 82.739 23.84C82.5897 23.7333 82.4723 23.584 82.387 23.392L78.435 14.112C78.3817 14.0053 78.355 13.872 78.355 13.712C78.355 13.424 78.4617 13.1947 78.675 13.024C78.8883 12.8427 79.107 12.752 79.331 12.752C79.5123 12.752 79.683 12.8053 79.843 12.912C80.003 13.0187 80.1257 13.1733 80.211 13.376L83.427 20.944L86.371 13.376C86.4563 13.184 86.579 13.0347 86.739 12.928C86.899 12.8213 87.0697 12.768 87.251 12.768ZM100.051 18.4C100.051 19.456 99.8162 20.4267 99.3469 21.312C98.8775 22.1867 98.2269 22.88 97.3949 23.392C96.5735 23.904 95.6455 24.16 94.6109 24.16C93.5762 24.16 92.6429 23.904 91.8109 23.392C90.9895 22.88 90.3442 22.1867 89.8749 21.312C89.4162 20.4267 89.1869 19.456 89.1869 18.4C89.1869 17.344 89.4162 16.3787 89.8749 15.504C90.3442 14.6187 90.9895 13.92 91.8109 13.408C92.6429 12.896 93.5762 12.64 94.6109 12.64C95.6455 12.64 96.5735 12.896 97.3949 13.408C98.2269 13.92 98.8775 14.6187 99.3469 15.504C99.8162 16.3787 100.051 17.344 100.051 18.4ZM97.9709 18.4C97.9709 17.6853 97.8269 17.04 97.5389 16.464C97.2509 15.8773 96.8509 15.4133 96.3389 15.072C95.8269 14.7307 95.2509 14.56 94.6109 14.56C93.9602 14.56 93.3789 14.7307 92.8669 15.072C92.3655 15.4027 91.9709 15.8613 91.6829 16.448C91.4055 17.0347 91.2669 17.6853 91.2669 18.4C91.2669 19.1147 91.4055 19.7653 91.6829 20.352C91.9709 20.9387 92.3655 21.4027 92.8669 21.744C93.3789 22.0747 93.9602 22.24 94.6109 22.24C95.2509 22.24 95.8269 22.0693 96.3389 21.728C96.8509 21.3867 97.2509 20.928 97.5389 20.352C97.8269 19.7653 97.9709 19.1147 97.9709 18.4ZM110.996 12.8C111.54 12.8 112.057 12.9653 112.548 13.296C113.039 13.616 113.433 14.0533 113.732 14.608C114.031 15.152 114.18 15.7493 114.18 16.4C114.18 17.04 114.031 17.6373 113.732 18.192C113.433 18.7467 113.039 19.1893 112.548 19.52C112.057 19.84 111.54 20 110.996 20H108.212V23.024C108.212 23.312 108.127 23.5467 107.956 23.728C107.785 23.9093 107.561 24 107.284 24C107.017 24 106.799 23.9093 106.628 23.728C106.457 23.536 106.372 23.3013 106.372 23.024V13.776C106.372 13.4987 106.463 13.2693 106.644 13.088C106.836 12.896 107.071 12.8 107.348 12.8H110.996ZM110.996 18.176C111.199 18.176 111.396 18.0907 111.588 17.92C111.791 17.7493 111.951 17.5307 112.068 17.264C112.196 16.9867 112.26 16.6987 112.26 16.4C112.26 16.1013 112.196 15.8187 112.068 15.552C111.951 15.2747 111.791 15.056 111.588 14.896C111.396 14.7253 111.199 14.64 110.996 14.64H108.212V18.176H110.996ZM120.301 15.28C120.621 15.28 120.887 15.3707 121.101 15.552C121.325 15.7333 121.437 15.9467 121.437 16.192C121.437 16.5227 121.351 16.7733 121.181 16.944C121.01 17.104 120.807 17.184 120.573 17.184C120.413 17.184 120.231 17.1467 120.029 17.072C119.997 17.0613 119.922 17.04 119.805 17.008C119.698 16.976 119.581 16.96 119.453 16.96C119.175 16.96 118.909 17.0453 118.653 17.216C118.397 17.3867 118.183 17.648 118.013 18C117.853 18.3413 117.773 18.752 117.773 19.232V23.024C117.773 23.3013 117.682 23.536 117.501 23.728C117.319 23.9093 117.09 24 116.812 24C116.535 24 116.306 23.9093 116.125 23.728C115.943 23.536 115.853 23.3013 115.853 23.024V16.416C115.853 16.1387 115.943 15.9093 116.125 15.728C116.306 15.536 116.535 15.44 116.812 15.44C117.09 15.44 117.319 15.536 117.501 15.728C117.682 15.9093 117.773 16.1387 117.773 16.416V16.624C118.018 16.1867 118.37 15.856 118.829 15.632C119.287 15.3973 119.778 15.28 120.301 15.28ZM124.598 23.024C124.598 23.3013 124.507 23.536 124.326 23.728C124.145 23.9093 123.915 24 123.638 24C123.361 24 123.131 23.9093 122.95 23.728C122.769 23.536 122.678 23.3013 122.678 23.024V16.416C122.678 16.1387 122.769 15.9093 122.95 15.728C123.131 15.536 123.361 15.44 123.638 15.44C123.915 15.44 124.145 15.536 124.326 15.728C124.507 15.9093 124.598 16.1387 124.598 16.416V23.024ZM123.622 14.4C123.259 14.4 123.003 14.3413 122.854 14.224C122.705 14.1067 122.63 13.8987 122.63 13.6V13.296C122.63 12.9973 122.71 12.7893 122.87 12.672C123.03 12.5547 123.286 12.496 123.638 12.496C124.011 12.496 124.273 12.5547 124.422 12.672C124.571 12.7893 124.646 12.9973 124.646 13.296V13.6C124.646 13.9093 124.566 14.1227 124.406 14.24C124.257 14.3467 123.995 14.4 123.622 14.4ZM136.443 15.28C137.499 15.28 138.23 15.6053 138.635 16.256C139.041 16.896 139.243 17.7867 139.243 18.928V23.024C139.243 23.3013 139.153 23.536 138.971 23.728C138.79 23.9093 138.561 24 138.283 24C138.006 24 137.777 23.9093 137.595 23.728C137.414 23.536 137.323 23.3013 137.323 23.024V18.928C137.323 18.3413 137.206 17.8827 136.971 17.552C136.747 17.2107 136.347 17.04 135.771 17.04C135.174 17.04 134.705 17.2213 134.363 17.584C134.033 17.936 133.867 18.384 133.867 18.928V23.024C133.867 23.3013 133.777 23.536 133.595 23.728C133.414 23.9093 133.185 24 132.907 24C132.63 24 132.401 23.9093 132.219 23.728C132.038 23.536 131.947 23.3013 131.947 23.024V18.928C131.947 18.3413 131.83 17.8827 131.595 17.552C131.371 17.2107 130.971 17.04 130.395 17.04C129.798 17.04 129.329 17.2213 128.987 17.584C128.657 17.936 128.491 18.384 128.491 18.928V23.024C128.491 23.3013 128.401 23.536 128.219 23.728C128.038 23.9093 127.809 24 127.531 24C127.254 24 127.025 23.9093 126.843 23.728C126.662 23.536 126.571 23.3013 126.571 23.024V16.416C126.571 16.1387 126.662 15.9093 126.843 15.728C127.025 15.536 127.254 15.44 127.531 15.44C127.809 15.44 128.038 15.536 128.219 15.728C128.401 15.9093 128.491 16.1387 128.491 16.416V16.672C128.779 16.288 129.142 15.9627 129.579 15.696C130.027 15.4187 130.523 15.28 131.067 15.28C132.411 15.28 133.27 15.8667 133.643 17.04C133.889 16.592 134.257 16.1867 134.747 15.824C135.249 15.4613 135.814 15.28 136.443 15.28ZM149.001 19.52C148.991 19.776 148.889 19.984 148.697 20.144C148.505 20.304 148.281 20.384 148.025 20.384H142.745C142.873 21.0133 143.167 21.5093 143.625 21.872C144.084 22.224 144.601 22.4 145.177 22.4C145.615 22.4 145.956 22.3627 146.201 22.288C146.447 22.2027 146.639 22.1173 146.777 22.032C146.927 21.936 147.028 21.872 147.081 21.84C147.273 21.744 147.455 21.696 147.625 21.696C147.849 21.696 148.041 21.776 148.201 21.936C148.361 22.096 148.441 22.2827 148.441 22.496C148.441 22.784 148.292 23.0453 147.993 23.28C147.695 23.5253 147.295 23.7333 146.793 23.904C146.292 24.0747 145.785 24.16 145.273 24.16C144.377 24.16 143.593 23.9733 142.921 23.6C142.26 23.2267 141.748 22.7147 141.385 22.064C141.023 21.4027 140.841 20.6613 140.841 19.84C140.841 18.9227 141.033 18.1173 141.417 17.424C141.801 16.7307 142.308 16.2027 142.937 15.84C143.567 15.4667 144.239 15.28 144.953 15.28C145.657 15.28 146.319 15.472 146.937 15.856C147.567 16.24 148.068 16.7573 148.441 17.408C148.815 18.0587 149.001 18.7627 149.001 19.52ZM144.953 17.04C143.716 17.04 142.985 17.6213 142.761 18.784H146.953V18.672C146.911 18.224 146.692 17.84 146.297 17.52C145.903 17.2 145.455 17.04 144.953 17.04Z" fill="white"/>
</svg>
