<svg width="109" height="125" viewBox="0 0 109 125" fill="none" xmlns="http://www.w3.org/2000/svg">
<g clip-path="url(#clip0_8312_7011)">
<path fill-rule="evenodd" clip-rule="evenodd" d="M43.4312 67.4446C44.9762 73.5118 42.931 82.68 39.5053 88.4693C38.8314 89.64 38.0222 90.7266 37.0946 91.7055C37.0785 91.7302 37.0699 91.7589 37.0699 91.7885C37.0699 91.8176 37.0785 91.8463 37.0946 91.871C39.0053 95.9406 44.2148 98.7338 47.8946 101.077C47.9148 101.089 47.9378 101.096 47.9616 101.096C47.9854 101.096 48.0088 101.089 48.029 101.077L54.4774 98.1857C54.4939 98.1784 54.5117 98.1744 54.5299 98.1744C54.5476 98.1744 54.5658 98.1784 54.5819 98.1857L62.2995 100.852C62.3181 100.865 62.3403 100.871 62.3629 100.871C62.3855 100.871 62.4077 100.865 62.4263 100.852C65.8521 98.4636 70.487 95.873 72.5023 92.1562C72.5023 80.0445 68.8153 67.8127 67.0091 65.8754L54.6195 82.5449C54.6062 82.5619 54.5892 82.5757 54.5698 82.585C54.5504 82.5939 54.529 82.5983 54.5072 82.5975C54.4842 82.5979 54.4612 82.5931 54.4402 82.5825C54.4192 82.572 54.4015 82.5567 54.3882 82.5372L43.6775 67.3245C43.6585 67.2982 43.6315 67.2787 43.6004 67.2694C43.5693 67.2597 43.5362 67.2609 43.5059 67.2719C43.4756 67.2876 43.4518 67.3135 43.4385 67.3451C43.4248 67.3762 43.4223 67.4114 43.4312 67.4446Z" fill="#309DFF"/>
<path fill-rule="evenodd" clip-rule="evenodd" d="M49.798 53.8309C51.2905 55.498 53.7313 58.0283 54.2759 58.5842C54.3732 58.6744 54.4402 58.7193 54.5077 58.7193C54.5823 58.7193 54.6417 58.6744 54.7462 58.5842C55.2763 58.0283 57.6796 55.498 59.2245 53.8309C59.2399 53.8079 59.2483 53.7804 59.2483 53.752C59.2483 53.7241 59.2399 53.6966 59.2245 53.6731C58.1164 51.2844 57.1616 48.8265 56.3659 46.3147C55.9852 45.2035 55.8508 43.3111 54.4927 43.3111C53.1343 43.3111 52.9998 45.2407 52.6268 46.3147C51.8279 48.8253 50.8731 51.2832 49.7682 53.6731C49.7536 53.697 49.746 53.7245 49.746 53.752C49.746 53.7799 49.7536 53.8075 49.7682 53.8309H49.798Z" fill="#F26D00"/>
<path fill-rule="evenodd" clip-rule="evenodd" d="M71.1741 45.5789C70.7079 45.5983 70.2468 45.477 69.85 45.2306C69.4532 44.9843 69.1387 44.6238 68.9469 44.1958C68.7556 43.7682 68.6954 43.2925 68.7749 42.8301C68.8545 42.3677 69.0696 41.9398 69.393 41.6016C69.7164 41.2634 70.1326 41.0304 70.5888 40.9321C71.045 40.8342 71.5197 40.8758 71.9525 41.0514C72.3849 41.2274 72.7551 41.5292 73.0154 41.9187C73.2758 42.3079 73.4143 42.767 73.4131 43.2359C73.4232 43.8451 73.1931 44.4329 72.7736 44.8718C72.3542 45.3107 71.7793 45.5652 71.1741 45.5789ZM69.3155 52.4268C70.6505 52.4596 71.965 52.0915 73.0913 51.369C74.2173 50.6469 75.1038 49.6032 75.6375 48.3718C76.1712 47.14 76.3278 45.7763 76.0872 44.4547C75.847 43.1331 75.2205 41.9135 74.2879 40.9519C73.3554 39.9901 72.1592 39.3299 70.8516 39.0554C69.5444 38.781 68.1855 38.9048 66.9486 39.4112C65.7116 39.9174 64.6523 40.7832 63.9067 41.8977C63.1614 43.0126 62.763 44.3253 62.7626 45.6691C62.7517 46.5457 62.9124 47.4159 63.2357 48.2298C63.5595 49.0441 64.0391 49.786 64.6475 50.4135C65.2563 51.0409 65.9817 51.5417 66.7827 51.8872C67.5836 52.2326 68.4443 52.4163 69.3155 52.4268ZM39.2293 43.0332C39.2454 43.4749 39.3903 43.9021 39.6459 44.2614C39.9016 44.621 40.2566 44.8969 40.6671 45.0546C41.0772 45.2124 41.5245 45.2456 41.9533 45.1497C42.3824 45.0534 42.7736 44.8326 43.0784 44.5146C43.3836 44.1966 43.5887 43.7953 43.6686 43.3609C43.7485 42.926 43.6997 42.4774 43.5281 42.0708C43.3565 41.6639 43.0695 41.3168 42.7033 41.0728C42.3372 40.8285 41.9076 40.6982 41.4684 40.6982C40.8653 40.7136 40.2924 40.9677 39.8735 41.4046C39.4546 41.8415 39.2232 42.4264 39.2293 43.0332ZM46.1481 45.6691C46.1159 46.9652 45.7041 48.2233 44.9649 49.2856C44.2253 50.3479 43.191 51.1671 41.9912 51.6408C40.7914 52.1145 39.479 52.2217 38.2189 51.9491C36.9587 51.6764 35.8065 51.0356 34.9063 50.1076C34.0062 49.1792 33.3982 48.0045 33.1584 46.7302C32.9185 45.4563 33.0576 44.1392 33.558 42.9442C34.0585 41.7492 34.8981 40.729 35.9719 40.0116C37.0458 39.2942 38.306 38.9114 39.595 38.9109C40.4664 38.9218 41.3271 39.1051 42.1281 39.4506C42.929 39.796 43.6545 40.2968 44.2629 40.9244C44.8716 41.5518 45.3512 42.2941 45.6746 43.108C45.998 43.922 46.159 44.7921 46.1481 45.6691Z" fill="#1A1A1A"/>
<path fill-rule="evenodd" clip-rule="evenodd" d="M41.8939 118.752C40.8039 118.28 41.2294 116.605 41.64 115.524C40.7793 115.659 39.9033 115.659 39.0427 115.524C38.6834 116.52 38.0264 117.381 37.1618 117.987C35.587 118.933 32.1612 117.949 28.5562 117.634C26.5932 117.461 22.1672 117.844 20.5999 119.188C20.2056 119.514 19.9559 119.984 19.9057 120.495C19.8694 120.823 19.9373 121.154 20.0998 121.441C20.3156 121.761 20.6096 122.019 20.9534 122.191C21.2971 122.363 21.6792 122.444 22.0628 122.424C22.212 121.779 23.4958 120.337 27.1604 120.615C23.7048 120.668 22.3464 121.659 22.1448 122.627C22.102 122.837 22.1102 123.055 22.1686 123.262C22.2271 123.468 22.3341 123.657 22.4807 123.814C22.6547 124.009 22.8659 124.167 23.1017 124.28C23.3376 124.392 23.5934 124.456 23.854 124.467C27.974 124.662 34.8481 120.862 38.5277 121.358C45.3121 122.109 48.268 122.049 49.5518 121.718C49.832 121.677 50.0875 121.534 50.2712 121.318C50.4553 121.101 50.5546 120.825 50.5518 120.54C50.5558 120.187 50.4541 119.842 50.2607 119.549C50.1416 119.347 49.9781 119.174 49.7831 119.045C47.6185 117.769 46.1256 120.547 41.9089 118.745L41.8939 118.752Z" fill="#F26D00"/>
<path fill-rule="evenodd" clip-rule="evenodd" d="M50.5441 119.631C50.6902 119.911 50.7645 120.224 50.7605 120.54C51.4121 120.518 52.0628 120.604 52.6861 120.795C52.064 120.256 51.3333 119.859 50.5441 119.631ZM22.2492 123.866C22.0008 123.552 21.8807 123.155 21.9134 122.755C20.9735 123.282 20.1981 124.062 19.6742 125.008C20.4213 124.43 21.2934 124.039 22.2194 123.866H22.2492ZM18.1964 122.424C18.7138 122.023 19.2939 121.711 19.9131 121.501C19.7784 121.236 19.7069 120.943 19.7041 120.645C19.0911 121.129 18.5831 121.735 18.2113 122.424H18.1964Z" fill="#1A1A1A"/>
<path fill-rule="evenodd" clip-rule="evenodd" d="M67.0988 118.752C68.1884 118.28 67.7633 116.605 67.3527 115.524C68.213 115.659 69.0894 115.659 69.9501 115.524C70.3098 116.522 70.9699 117.383 71.8383 117.987C73.4058 118.933 76.8317 117.949 80.4363 117.634C82.3996 117.461 86.8254 117.844 88.4002 119.188C88.7918 119.516 89.0409 119.985 89.0942 120.495C89.1245 120.823 89.0542 121.153 88.8927 121.441C88.6792 121.759 88.3881 122.018 88.047 122.191C87.7062 122.365 87.3268 122.448 86.9449 122.432C86.7955 121.786 85.5117 120.345 81.8473 120.622C85.303 120.675 86.6611 121.666 86.8702 122.635C86.9101 122.845 86.9 123.063 86.8403 123.269C86.7805 123.476 86.6732 123.665 86.527 123.821C86.353 124.017 86.1415 124.175 85.9057 124.287C85.67 124.4 85.414 124.463 85.1536 124.475C81.0334 124.67 74.1596 120.87 70.4798 121.366C63.6956 122.117 60.7772 122.057 59.4559 121.726C59.1765 121.683 58.9218 121.54 58.7381 121.324C58.5544 121.107 58.4543 120.832 58.4559 120.547C58.4567 120.197 58.5548 119.853 58.7393 119.556C58.8661 119.355 59.034 119.183 59.2322 119.053C61.3892 117.776 62.8817 120.555 67.0988 118.752Z" fill="#F26D00"/>
<path fill-rule="evenodd" clip-rule="evenodd" d="M58.4631 119.631C58.3242 119.914 58.2504 120.225 58.2467 120.54C57.598 120.518 56.9496 120.604 56.3287 120.795C56.948 120.256 57.6763 119.859 58.4631 119.631ZM86.7583 123.866C87.0066 123.552 87.1269 123.155 87.0942 122.755C88.0356 123.28 88.8115 124.06 89.3331 125.008C88.5863 124.43 87.7139 124.039 86.7882 123.866H86.7583ZM90.8184 122.432C90.2968 122.033 89.7146 121.721 89.0941 121.508C89.2326 121.244 89.3041 120.951 89.3033 120.653C89.9157 121.138 90.4239 121.743 90.7962 122.432H90.8184Z" fill="#1A1A1A"/>
<path fill-rule="evenodd" clip-rule="evenodd" d="M43.3864 31.8225C51.4472 35.577 57.5673 35.577 65.6656 31.8225C67.4867 30.9666 70.0991 30.5986 72.6291 30.4409C72.965 30.3583 73.0845 30.2532 72.9129 30.058C62.5458 17.8711 75.2043 8.04949 73.7938 7.64403C70.2259 6.6003 62.2398 10.0994 60.0453 13.8839C60.021 13.9264 59.9839 13.9598 59.9391 13.979C59.8943 13.9982 59.8442 14.0021 59.797 13.9902C59.7498 13.9783 59.7078 13.9513 59.6771 13.9131C59.6464 13.8749 59.6291 13.8278 59.6274 13.7788C59.5305 10.5424 66.7702 3.16874 72.4951 1.17138C72.5427 1.15866 72.5847 1.1304 72.615 1.09102C72.6453 1.05163 72.6614 1.00333 72.6614 0.953625C72.6614 0.903924 72.6453 0.855619 72.615 0.816234C72.5847 0.776849 72.5427 0.748593 72.4951 0.735866C53.2013 -2.56803 42.2742 4.96336 36.3183 30.1181C36.281 30.2832 36.3705 30.3808 36.5795 30.4484C38.9099 30.5052 41.2129 30.9676 43.3864 31.8151V31.8225Z" fill="#309DFF"/>
<path fill-rule="evenodd" clip-rule="evenodd" d="M46.4542 56.4741C48.6487 53.8762 50.2607 49.1303 51.3652 45.8791C52.1117 43.7917 52.2534 41.907 54.5 41.9296C56.7393 41.9296 56.9331 43.7917 57.6348 45.8791C58.747 49.1303 60.3517 53.8762 62.5535 56.4741C63.6358 57.7864 65.0371 58.7953 66.6212 59.4025C71.7486 61.3851 79.9067 60.1533 83.1832 54.6796C84.4891 52.4943 84.9223 49.5433 85.3401 46.7278C85.743 44.0469 86.0866 41.4713 87.221 39.9697C87.4031 39.697 87.6332 39.4603 87.9 39.2713C88.3255 38.971 88.4898 38.8509 88.4822 37.4317V34.4281C88.485 34.3291 88.4725 34.2304 88.445 34.1353C88.1988 33.2342 86.7507 32.6335 84.6534 32.213C82.2227 31.8226 79.763 31.6442 77.3016 31.6799C73.1592 31.6799 68.8153 32.1755 66.2405 33.0615C57.5677 36.4705 51.4698 36.4705 42.7894 33.069C40.2145 32.183 35.8707 31.7099 31.7208 31.6874C29.262 31.6517 26.8048 31.8301 24.3765 32.2205C22.2792 32.611 20.8238 33.2417 20.5775 34.1428C20.5661 34.2401 20.5661 34.3384 20.5775 34.4357V37.4392C20.5775 38.8583 20.7417 38.941 21.1597 39.2789C21.4312 39.4649 21.6644 39.702 21.8463 39.9772C22.9435 41.479 23.3391 44.0769 23.7197 46.735C24.1377 49.551 24.578 52.502 25.8842 54.6869C29.1533 60.176 37.3111 61.3924 42.4462 59.4102C44.0291 58.8006 45.43 57.7925 46.5139 56.4818L46.4542 56.4741ZM43.5956 55.9786C39.6548 59.2901 31.7208 58.7342 28.2875 54.6493C24.7572 50.4369 22.7345 37.1238 29.1384 35.1265C34.2958 33.497 44.7376 34.1653 48.3722 39.2639C51.2756 43.3188 46.8421 53.2905 43.5956 56.0012V55.9786ZM65.4121 55.9786C69.3753 59.2901 77.2794 58.7342 80.7125 54.6493C84.2505 50.4446 86.2654 37.1238 79.8692 35.1265C74.734 33.4745 64.285 34.1428 60.6351 39.2413C57.7244 43.2961 62.128 53.2605 65.4121 55.9786Z" fill="#1A1A1A"/>
<path fill-rule="evenodd" clip-rule="evenodd" d="M62.2919 58.7796C62.3464 58.7411 62.4122 58.7225 62.4788 58.727C62.5608 58.727 62.6354 58.727 62.6354 58.7945C62.3666 61.7302 58.2916 64.0506 54.7612 64.0506C51.2308 64.0506 47.1482 61.7079 46.887 58.7945C46.887 58.7945 46.9616 58.7342 47.0436 58.727C47.1098 58.7237 47.1756 58.7419 47.2305 58.7796C52.4548 63.0069 57.0676 63.0069 62.2919 58.7796Z" fill="#F26D00"/>
<path fill-rule="evenodd" clip-rule="evenodd" d="M57.7167 77.5514C57.0825 76.5571 56.6933 75.424 56.5823 74.2476C56.5823 69.9826 59.8963 72.5207 59.7393 72.3552L54.6045 67.0991C54.5702 67.0886 54.5339 67.0886 54.5 67.0991C54.4633 67.1016 54.4285 67.1177 54.4027 67.1444L49.4319 72.5955C49.2829 72.7609 52.5444 70.1177 52.649 74.3904C52.5941 75.568 52.2312 76.7104 51.5966 77.7019C51.5832 77.7245 51.5764 77.7504 51.5764 77.7767C51.5764 77.803 51.5832 77.8289 51.5966 77.852L54.4027 81.8766C54.4152 81.8953 54.4318 81.9102 54.4515 81.9207C54.4709 81.9313 54.4927 81.9369 54.5149 81.9365C54.5367 81.9361 54.5585 81.9304 54.5779 81.9199C54.5973 81.9094 54.6142 81.8948 54.6267 81.8766L57.7094 77.7241C57.724 77.7019 57.732 77.676 57.732 77.6493C57.732 77.6226 57.724 77.5963 57.7094 77.5741L57.7167 77.5514Z" fill="#1A1A1A"/>
<path fill-rule="evenodd" clip-rule="evenodd" d="M54.4851 84.6849C54.6425 84.6837 54.7971 84.729 54.9291 84.8156C55.0612 84.9025 55.1645 85.0267 55.2267 85.1724C55.2884 85.318 55.3062 85.479 55.2775 85.6351C55.2489 85.7909 55.175 85.9349 55.0648 86.0486C54.955 86.1622 54.8141 86.2407 54.6599 86.2739C54.5061 86.3071 54.3454 86.2937 54.1988 86.2355C54.0523 86.1772 53.9259 86.0765 53.8363 85.9462C53.7463 85.816 53.697 85.6618 53.6938 85.5033C53.6918 85.3973 53.7108 85.2917 53.7495 85.193C53.7883 85.0943 53.8464 85.0045 53.9199 84.9284C53.9934 84.852 54.0814 84.7913 54.1783 84.7496C54.2751 84.708 54.3797 84.6861 54.4851 84.6849Z" fill="#FCFCFC"/>
<path fill-rule="evenodd" clip-rule="evenodd" d="M54.485 90.0611C54.6845 90.0805 54.8698 90.174 55.0042 90.3232C55.139 90.4725 55.2137 90.6671 55.2137 90.8685C55.2137 91.07 55.139 91.2646 55.0042 91.4138C54.8698 91.5627 54.6845 91.6562 54.485 91.6756C54.3732 91.6865 54.2602 91.674 54.1536 91.638C54.047 91.6024 53.9489 91.5449 53.8657 91.4689C53.7826 91.3928 53.716 91.3002 53.6704 91.1966C53.6251 91.0935 53.6013 90.9814 53.6013 90.8685C53.6013 90.7553 53.6251 90.6436 53.6704 90.5401C53.716 90.4369 53.7826 90.3443 53.8657 90.2682C53.9489 90.1922 54.047 90.1343 54.1536 90.0987C54.2602 90.0631 54.3732 90.0506 54.485 90.0611Z" fill="#FCFCFC"/>
<path fill-rule="evenodd" clip-rule="evenodd" d="M54.485 95.4676C54.6845 95.487 54.8698 95.5805 55.0042 95.7298C55.139 95.879 55.2137 96.0732 55.2137 96.2747C55.2137 96.4765 55.139 96.6707 55.0042 96.82C54.8698 96.9692 54.6845 97.0627 54.485 97.0821C54.3732 97.093 54.2602 97.0801 54.1536 97.0445C54.047 97.0089 53.9489 96.951 53.8657 96.8754C53.7826 96.7993 53.716 96.7067 53.6704 96.6031C53.6251 96.4996 53.6013 96.3879 53.6013 96.2747C53.6013 96.1618 53.6251 96.0502 53.6704 95.9466C53.716 95.843 53.7826 95.7504 53.8657 95.6743C53.9489 95.5983 54.047 95.5409 54.1536 95.5053C54.2602 95.4697 54.3732 95.4567 54.485 95.4676Z" fill="#FCFCFC"/>
<path fill-rule="evenodd" clip-rule="evenodd" d="M39.1545 88.2743C42.252 83.0178 44.4687 74.3604 43.1922 68.1954C42.0279 63.4648 40.0352 62.1885 35.9974 61.6028C28.8397 60.8519 16.9351 58.5016 3.0227 49.716C3.00255 49.7035 2.97927 49.697 2.95552 49.697C2.93177 49.697 2.9085 49.7035 2.88835 49.716H2.81371C2.79158 49.7261 2.7724 49.7419 2.75802 49.7617C2.74365 49.7816 2.73455 49.8046 2.73161 49.8289C2.14944 55.9786 3.3511 63.5926 9.44894 70.9361C10.2924 71.9349 0.0819943 69.2617 0.014821 69.3293C-0.00373103 69.3475 -0.0170131 69.3702 -0.0235902 69.3952C-0.0301675 69.4207 -0.0297892 69.447 -0.0224969 69.4721C3.79892 81.4863 10.7028 83.9114 15.1214 86.322C16.3902 87.0202 7.04565 87.0728 7.76214 87.7035C13.1958 92.6667 18.592 94.9571 24.4361 95.2124C33.3253 95.5579 36.2362 91.6905 35.8406 93.0271C34.0643 99.1096 33.3104 112.55 38.6022 115.178C39.6559 115.466 40.7643 115.483 41.8265 115.231C46.4989 112.475 48.1933 104.493 49.2005 104.937C50.8404 105.763 52.6372 106.227 54.4701 106.295C56.3251 106.239 58.1462 105.778 59.8066 104.944C60.8066 104.501 62.4937 112.408 67.1136 115.201C67.1241 115.206 67.1355 115.209 67.1472 115.209C67.1589 115.209 67.1702 115.206 67.1807 115.201L70.405 115.156C70.4268 115.162 70.4503 115.162 70.4721 115.156C75.6968 112.235 74.9503 99.2747 73.1668 93.0425C72.801 91.7808 75.7565 95.5651 84.571 95.2273C90.4154 94.9947 95.8117 92.712 101.245 87.7185C101.932 87.0955 93.8933 87.2605 93.7815 86.4947C93.7771 86.466 93.7819 86.4365 93.7952 86.411C93.8086 86.3851 93.83 86.3645 93.8562 86.352C98.2747 83.9341 105.201 81.4935 109.022 69.4794C109.231 68.8188 103.223 71.1015 99.6328 71.214C98.1403 71.2589 107.895 64.9215 106.283 49.6861C106.281 49.6606 106.272 49.6363 106.258 49.6153C106.243 49.5943 106.224 49.5773 106.201 49.5659H106.141C106.119 49.553 106.093 49.5457 106.067 49.5457C106.04 49.5457 106.015 49.553 105.992 49.5659C97.2671 56.1663 76.9955 62.4587 66.1508 62.3309C66.1266 62.3236 66.1004 62.3236 66.0761 62.3309C65.9046 62.4361 65.9046 62.6614 66.039 63.0146C68.2755 66.7528 69.8822 70.8378 70.793 75.1036C72.1361 80.6861 72.8374 86.4053 72.883 92.1489V92.2164C72.8874 92.2387 72.8874 92.2617 72.883 92.284V92.3439C70.8079 96.1736 66.1658 98.7415 62.6802 101.182C62.4561 101.332 62.4412 101.332 62.1949 101.242L54.5819 98.6291C54.548 98.6181 54.5116 98.6181 54.4773 98.6291L48.1707 101.46C47.9095 101.572 47.8945 101.572 47.6555 101.422C43.9237 99.0267 38.6992 96.2334 36.7064 92.0437C36.5646 91.7282 36.5721 91.6756 36.8109 91.4203C37.7178 90.468 38.5071 89.409 39.162 88.2666L39.1545 88.2743Z" fill="#333333"/>
</g>
<defs>
<clipPath id="clip0_8312_7011">
<rect width="109" height="125" fill="white"/>
</clipPath>
</defs>
</svg>
